<svg width="80" height="40" viewBox="0 0 80 40" fill="none" xmlns="http://www.w3.org/2000/svg">
<path d="M43 20C43 18.34 41.66 17 40 17C38.34 17 37 18.34 37 20C37 21.66 38.34 23 40 23C40.41 23 40.81 22.92 41.17 22.76" stroke="#B2ABAB" stroke-width="1.5" stroke-miterlimit="10" stroke-linecap="round" stroke-linejoin="round"/>
<path d="M34.8799 28.5799L35.9699 29.2099C36.7599 29.6799 37.7799 29.3999 38.2499 28.6099L38.3599 28.4199C39.2599 26.8499 40.7399 26.8499 41.6499 28.4199L41.7599 28.6099C42.2299 29.3999 43.2499 29.6799 44.0399 29.2099L45.7699 28.2199C46.6799 27.6999 46.9899 26.5299 46.4699 25.6299C45.5599 24.0599 46.2999 22.7799 48.1099 22.7799C49.1499 22.7799 50.0099 21.9299 50.0099 20.8799V19.1199C50.0099 18.0799 49.1599 17.2199 48.1099 17.2199C47.0999 17.2199 46.4199 16.8199 46.1799 16.1899C45.9899 15.6999 46.0699 15.0599 46.4699 14.3699C46.9899 13.4599 46.6799 12.2999 45.7699 11.7799L44.9599 11.3199" stroke="#B2ABAB" stroke-width="1.5" stroke-miterlimit="10" stroke-linecap="round" stroke-linejoin="round"/>
<path d="M41.64 11.5801C40.74 13.1501 39.26 13.1501 38.35 11.5801L38.24 11.3901C37.78 10.6001 36.76 10.3201 35.97 10.7901L34.24 11.7801C33.33 12.3001 33.02 13.4701 33.54 14.3801C34.45 15.9401 33.71 17.2201 31.9 17.2201C30.86 17.2201 30 18.0701 30 19.1201V20.8801C30 21.9201 30.85 22.7801 31.9 22.7801C33.71 22.7801 34.45 24.0601 33.54 25.6301" stroke="#B2ABAB" stroke-width="1.5" stroke-miterlimit="10" stroke-linecap="round" stroke-linejoin="round"/>
</svg>
